<svg xmlns="http://www.w3.org/2000/svg" width="800" height="800" viewBox="0 0 800 800" fill="none"><metadata><rdf:RDF xmlns:rdf="http://www.w3.org/1999/02/22-rdf-syntax-ns#" xmlns:dc="http://purl.org/dc/elements/1.1/"><rdf:Description><dc:creator>RealFaviconGenerator</dc:creator><dc:source>https://realfavicongenerator.net</dc:source></rdf:Description></rdf:RDF></metadata><path d="M411.864 569.775V216.939H542.679C628.091 216.939 704.513 246.794 704.513 343.146C704.513 442.211 624.495 469.805 542.679 469.805H528.744V569.775H411.864ZM528.744 368.477H551.221C569.652 368.477 582.239 359.883 582.239 343.146C582.239 326.861 569.202 318.266 551.221 318.266H528.744V368.477Z" fill="black"></path><path d="M314.495 569.775L304.606 524.992H220.992L211.102 569.775L127.119 558.189L101.412 537.296L185.029 216.939H341.018L434.522 569.775H314.495ZM238.973 443.116H286.624L262.349 335.456L238.973 443.116Z" fill="black"></path><rect x="66" y="221" width="668" height="358" rx="145.173" stroke="black" stroke-width="32"></rect><path d="M252.984 664V631.072H244.296V626.56H266.328V631.072H257.688V664H252.984ZM270.489 664V626.56H290.937V631.072H275.193V642.832H289.113V647.344H275.193V659.488H290.937V664H270.489ZM306.644 664.432C299.876 664.432 295.076 660.64 293.972 654.544L298.58 653.488C299.3 657.856 302.708 660.16 306.74 660.16C310.82 660.16 314.276 657.712 314.276 653.776C314.276 650.224 311.54 648.64 307.988 647.344L302.276 645.376C297.572 643.744 294.932 640.672 294.932 636.256C294.932 631.456 298.82 626.128 306.308 626.128C313.46 626.128 317.444 630.304 318.164 635.344L313.556 636.256C313.22 632.56 310.532 630.352 306.5 630.352C302.564 630.352 299.636 632.704 299.636 635.92C299.636 638.752 301.412 640.384 304.58 641.488L309.812 643.36C315.764 645.424 319.028 648.592 319.028 653.68C319.028 658.864 315.428 664.432 306.644 664.432ZM329.31 664V631.072H320.622V626.56H342.654V631.072H334.014V664H329.31ZM356.554 664V626.56H367.354C374.266 626.56 380.266 629.632 380.266 637.552C380.266 644.944 374.17 648.592 367.354 648.592H361.258V664H356.554ZM361.258 644.08H367.45C372.01 644.08 375.562 641.968 375.562 637.504C375.562 632.992 372.01 631.024 367.45 631.024H361.258V644.08ZM384.433 664V626.56H389.137V659.488H404.881V664H384.433ZM432.451 664L429.859 656.032H414.067L411.475 664H406.675L419.011 626.56H424.867L437.251 664H432.451ZM415.507 651.568H428.371L421.939 631.744L415.507 651.568ZM456.829 664.432C445.837 664.432 437.533 656.176 437.533 645.28C437.533 634.384 445.981 626.128 456.493 626.128C464.557 626.128 471.373 630.496 473.773 637.504L469.693 639.04C467.869 634 462.781 630.4 456.685 630.4C448.669 630.4 442.285 636.976 442.285 645.28C442.285 653.728 448.621 660.112 457.069 660.112C463.069 660.112 468.109 656.656 469.933 651.856L474.109 653.248C471.565 660.016 464.845 664.432 456.829 664.432ZM478.618 664V626.56H499.066V631.072H483.322V642.832H497.242V647.344H483.322V659.488H499.066V664H478.618ZM527.869 664V646.432H508.717V664H504.013V626.56H508.717V641.92H527.869V626.56H532.573V664H527.869ZM556.591 664.432C545.887 664.432 537.343 656.56 537.343 645.232C537.343 634.192 545.743 626.128 556.591 626.128C567.583 626.128 575.935 634.192 575.935 645.232C575.935 656.56 567.439 664.432 556.591 664.432ZM556.639 660.112C565.087 660.112 571.135 653.68 571.135 645.232C571.135 636.88 565.087 630.4 556.639 630.4C548.143 630.4 542.095 636.88 542.095 645.232C542.095 653.68 548.143 660.112 556.639 660.112ZM580.678 664V626.56H585.382V659.488H601.126V664H580.678ZM605.464 664V626.56H615.496C627.496 626.56 636.52 633.616 636.52 645.28C636.52 657.136 627.352 663.952 615.496 663.952H610.168V664H605.464ZM610.168 659.488H616.168C625.432 659.488 631.768 653.728 631.768 645.28C631.768 636.832 625.432 631.072 616.168 631.072H610.168V659.488ZM641.265 664V626.56H661.713V631.072H645.969V642.832H659.889V647.344H645.969V659.488H661.713V664H641.265ZM666.66 664V626.56H677.46C684.372 626.56 690.372 629.632 690.372 637.552C690.372 643.456 686.436 647.008 681.444 648.16L691.812 664H686.436L676.452 648.592H671.364V664H666.66ZM671.364 644.08H677.556C682.116 644.08 685.668 641.968 685.668 637.504C685.668 632.992 682.116 631.024 677.556 631.024H671.364V644.08Z" fill="black"></path></svg>