<svg width="1147" height="383" viewBox="0 0 1147 383" fill="none" xmlns="http://www.w3.org/2000/svg">
<g clip-path="url(#clip0_142_32)">
<path d="M1082.17 367.028L1077.17 344.521H1034.88L1029.88 367.028H969.411L1016.7 189.705H1095.58L1142.87 367.028H1082.17ZM1043.98 303.373H1068.08L1055.8 249.267L1043.98 303.373Z" fill="currentColor"/>
<path d="M923.81 367.582V243.457H889.709V190.26H1017.02V243.457H982.918V367.582H923.81Z" fill="currentColor"/>
<path d="M803.357 367.582V243.457H769.256L692.621 190.26L896.565 190.26V243.457H862.465V367.582H803.357Z" fill="currentColor"/>
<path d="M688.157 370.311C638.37 370.311 593.812 336.438 593.812 278.694C593.812 223.679 636.097 189.705 688.385 189.705C740.899 189.705 783.184 223.679 783.184 278.694C783.184 335.983 738.853 370.311 688.157 370.311ZM688.385 313.022C706.344 313.022 721.576 299.609 721.576 278.694C721.576 258.461 706.344 245.048 688.385 245.048C670.198 245.048 655.421 258.461 655.421 278.694C655.421 299.836 670.425 313.022 688.385 313.022Z" fill="currentColor"/>
<path d="M457.62 367.355V190.26H513.772L555.602 264.144V190.26H614.71V367.582H558.33L516.728 294.153V367.582L457.62 367.355Z" fill="currentColor"/>
<path d="M367.927 370.311C312.911 370.311 275.855 330.527 275.855 279.149C275.855 227.089 314.275 187.532 367.927 187.532C409.757 187.532 439.538 210.493 451.132 238.683L395.434 260.28C393.161 253.46 382.249 244.139 369.063 244.139C352.013 244.139 336.781 258.006 336.781 279.376C336.781 301.201 351.786 313.704 368.836 313.704C380.43 313.704 390.888 308.703 395.889 299.609H372.701V265.963L458.861 265.736C463.635 335.301 419.987 370.311 367.927 370.311Z" fill="currentColor"/>
<path d="M237.179 367.582L232.178 345.076H189.893L184.892 367.582H124.42L171.706 190.26H250.592L297.878 367.582H237.179ZM198.987 303.928H223.085L210.808 249.822L198.987 303.928Z" fill="currentColor"/>
<path d="M14.633 369.016V191.693H80.7881C123.982 191.693 162.629 206.697 162.629 255.12C162.629 304.907 122.163 318.774 80.7881 318.774H73.7406V369.016H14.633ZM73.7406 267.851H85.1075C94.4283 267.851 100.794 263.532 100.794 255.12C100.794 246.936 94.201 242.617 85.1075 242.617H73.7406V267.851Z" fill="currentColor"/>
<path d="M676.549 191.748L720.425 101.723L679.049 14.4256H742.476L759.754 52.8456L777.941 14.4256H840.231L797.492 103.314L839.322 191.748H776.577L758.39 151.737L738.612 191.748H676.549Z" fill="currentColor"/>
<path d="M577.397 191.748V14.4256H690.838V63.7577H636.505V81.9447H683.791V123.093H636.505V142.416H690.838V191.748H577.397Z" fill="currentColor"/>
<path d="M467.378 191.748V14.4256H526.486V138.779H580.82V191.748H467.378Z" fill="currentColor"/>
<path d="M421.105 192.04L416.104 169.534H373.819L368.817 192.04H308.346L355.632 14.7171H434.518L481.804 192.04H421.105ZM382.912 128.386H407.01L394.734 74.2794L382.912 128.386Z" fill="currentColor"/>
</g>
<rect x="10.8192" y="10.8192" width="1125.19" height="360.638" rx="57.7021" stroke="currentColor" stroke-width="21.6383"/>
<defs>
<clipPath id="clip0_142_32">
<rect x="21.6384" y="21.6384" width="1103.55" height="339" rx="46.883" fill="white"/>
</clipPath>
</defs>
</svg>
